<svg width="16" height="17" viewBox="0 0 16 17" fill="none" xmlns="http://www.w3.org/2000/svg">
<path d="M14.2222 1.7H12.4444V0H10.6667V1.7H5.33333V0H3.55556V1.7H1.77778C0.797333 1.7 0 2.46245 0 3.4V15.3C0 16.2376 0.797333 17 1.77778 17H14.2222C15.2027 17 16 16.2376 16 15.3V3.4C16 2.46245 15.2027 1.7 14.2222 1.7ZM10.9796 11.6544L8.00178 14.45L5.02489 11.6544C4.84129 11.4855 4.69523 11.2829 4.59545 11.0588C4.49568 10.8347 4.44426 10.5936 4.44426 10.35C4.44426 10.1064 4.49568 9.86536 4.59545 9.64123C4.69523 9.41711 4.84129 9.21455 5.02489 9.0457C5.39487 8.69641 5.89386 8.50055 6.41378 8.50055C6.93369 8.50055 7.43268 8.69641 7.80267 9.0457L8.00178 9.23185L8.20089 9.0457C8.57102 8.69635 9.07016 8.50047 9.59022 8.50047C10.1103 8.50047 10.6094 8.69635 10.9796 9.0457C11.1632 9.21455 11.3092 9.41711 11.409 9.64123C11.5088 9.86536 11.5602 10.1064 11.5602 10.35C11.5602 10.5936 11.5088 10.8347 11.409 11.0588C11.3092 11.2829 11.1632 11.4855 10.9796 11.6544ZM14.2222 5.95H1.77778V4.25H14.2222V5.95Z" fill="#FF2C33"/>
</svg>
