<svg width="755" height="279" fill="none" xmlns="http://www.w3.org/2000/svg" viewBox="0 0 755 279"><path d="M468.67 0v66.46h-56.72v209.1h-65.7V66.46h-56.7V0zm285.89 171.19C740.39 232.96 685.66 279 620.3 279c-76.14 0-137.85-62.43-137.85-139.49C482.45 62.46 544.16 0 620.3 0c64.29 0 118.3 44.57 133.54 104.84H682.4c-12.06-22.1-35.36-37.08-62.08-37.08-39.16 0-70.9 32.12-70.9 71.75s31.74 71.76 70.9 71.76c27.93 0 52.07-16.34 63.64-40.08zm-482.23 0C258.16 232.96 203.43 279 138.07 279 61.94 279 .22 216.57.22 139.51.22 62.46 61.94 0 138.07 0c64.3 0 118.31 44.57 133.55 104.84h-71.45c-12.05-22.1-35.35-37.08-62.07-37.08-39.16 0-70.9 32.12-70.9 71.75s31.74 71.76 70.9 71.76c27.93 0 52.07-16.34 63.64-40.08z" fill="#FFCB05"/></svg>