<svg width="144" height="64" viewBox="0 0 144 64" fill="none" xmlns="http://www.w3.org/2000/svg">
<g clip-path="url(#clip0_9001_581)">
<path d="M68.7422 24.1509V22.1943L72.7578 21.16L74.555 15.9329H77.0823V20.8246H85.8155V24.123H77.0823V32.2292C77.0823 33.2635 77.2227 34.102 77.5316 34.717C77.8405 35.3319 78.2898 35.7792 78.9076 36.0587C79.5253 36.3382 80.3678 36.45 81.4068 36.45C82.3615 36.45 83.204 36.3382 83.9622 36.1426C84.7203 35.9469 85.4505 35.6394 86.1525 35.2201V38.7701C85.5066 39.1055 84.6642 39.385 83.6252 39.6366C82.5862 39.8882 81.5191 40 80.4801 40C77.8405 40 75.9029 39.3571 74.6392 38.0992C73.4036 36.8414 72.7578 35.1083 72.7578 32.8721V24.1509H68.7422Z" fill="#221E1E"/>
<path d="M98.1992 39.5528V20.7128L100.361 21.1041L102.524 20.7128V39.5528H98.1992Z" fill="#ED353A"/>
<path d="M114.853 18.0293C114.066 18.7282 113.701 19.8183 113.701 21.3557V22.1384H122.294V25.4368H113.701V39.5528H109.377V25.4368H105.361V22.1384H109.377V21.747C109.377 20.0978 109.686 18.6723 110.304 17.4703C110.921 16.2683 111.876 15.318 113.168 14.6471C114.46 13.9762 116.06 13.6408 117.97 13.6408C118.868 13.6408 119.655 13.6967 120.385 13.8365C121.115 13.9762 121.873 14.1719 122.659 14.4514V17.8337C121.396 17.2746 120.02 16.9672 118.475 16.9672C116.847 16.9672 115.639 17.3305 114.853 18.0293Z" fill="#ED353A"/>
<path d="M127.572 31.7261C127.937 33.2914 128.807 34.4934 130.127 35.3599C131.447 36.2264 133.132 36.6457 135.154 36.6457C136.614 36.6457 138.074 36.4221 139.591 35.9469C141.079 35.4997 142.427 34.8567 143.578 34.0461V37.1768C142.427 38.0713 141.023 38.7421 139.366 39.2453C137.709 39.7484 136.052 40 134.339 40C132.149 40 130.211 39.5807 128.499 38.7701C126.786 37.9595 125.438 36.7855 124.483 35.304C123.528 33.8225 123.051 32.0894 123.051 30.1607C123.051 28.232 123.5 26.5549 124.427 25.0734C125.353 23.5919 126.617 22.4458 128.274 21.6073C129.903 20.7966 131.784 20.3774 133.862 20.3774C135.94 20.3774 137.737 20.8525 139.31 21.775C140.854 22.7254 142.062 24.0391 142.904 25.7442C143.747 27.4493 144.168 29.434 144.168 31.6981H127.572V31.7261ZM130.773 24.3187C129.903 24.71 129.201 25.2411 128.639 25.9399C128.077 26.6387 127.684 27.4773 127.516 28.4277H139.591C139.282 26.9462 138.608 25.8001 137.569 24.9616C136.53 24.1509 135.238 23.7317 133.665 23.7317C132.598 23.7596 131.644 23.9273 130.773 24.3187Z" fill="#ED353A"/>
<path d="M98.2839 18.8679C97.5819 18.8679 96.8799 18.4766 96.5429 17.8057C96.0374 16.8553 96.4306 15.6534 97.4134 15.1782C101.654 13.0259 107.944 8.74913 108.59 6.00978C108.674 5.5905 108.618 5.31097 108.393 5.00349C107.888 4.33264 107.551 4.36059 107.438 4.36059C106.315 4.38854 104.406 6.2334 103.479 7.57512C103.114 8.10622 102.496 8.4137 101.85 8.4137C101.204 8.4137 100.587 8.07827 100.222 7.54717C99.0983 5.87002 97.1326 3.96925 96.1217 3.9413C96.0374 3.9413 95.8128 3.9413 95.4758 4.41649C95.2792 4.69602 95.2231 4.94759 95.2792 5.25507C95.5601 6.79245 98.0593 8.80503 99.1544 9.50384C100.081 10.0908 100.334 11.2928 99.7441 12.2152C99.1544 13.1377 97.947 13.3892 97.0203 12.8022C96.5148 12.4948 92.1061 9.5877 91.4041 6.00978C91.1513 4.61216 91.4321 3.29839 92.2746 2.12439C93.5663 0.33543 95.1108 6.63834e-07 96.2059 0.0279531C98.4805 0.0838581 100.53 1.81691 101.906 3.3543C103.226 2.01258 105.192 0.503145 107.354 0.44724C108.477 0.419288 110.134 0.78267 111.538 2.68344C112.465 3.91335 112.774 5.39483 112.409 6.93222C111.117 12.4109 101.176 17.6939 99.2106 18.7002C98.8736 18.812 98.5647 18.8679 98.2839 18.8679Z" fill="#ED353A"/>
<path d="M91.4611 14.5073L89.2988 14.0881V39.5528H93.6233V14.0881L91.4611 14.5073Z" fill="#ED353A"/>
<path d="M65.8502 30.1328C64.727 29.2103 62.8175 28.6233 60.1217 28.3438L55.376 27.9245C54 27.8127 53.0452 27.5891 52.4836 27.2537C51.922 26.9182 51.6412 26.499 51.6412 25.9679C51.6412 25.2131 52.0624 24.6541 52.9329 24.2348C53.8034 23.8155 55.0109 23.6198 56.5835 23.6198C57.9314 23.6198 59.0827 23.7596 59.9813 24.0671C60.8799 24.3746 61.5538 24.7659 62.0031 25.2411C62.4524 25.7163 62.7332 26.2194 62.8175 26.7505H62.8456L65.0078 26.3592L67.1701 26.7505H67.1981C67.0858 25.4927 66.5803 24.4025 65.6818 23.4242C64.7832 22.4738 63.5476 21.7191 62.0031 21.16C60.4587 20.6289 58.7457 20.3494 56.8081 20.3494C54.9267 20.3494 53.2699 20.573 51.8378 21.0203C50.4056 21.4675 49.3105 22.1384 48.5242 23.0049C47.7379 23.8714 47.3448 24.9336 47.3448 26.1915C47.3448 27.673 47.9626 28.9029 49.1981 29.8812C50.4337 30.8595 52.4555 31.5024 55.2637 31.7261L58.9423 32.0615C60.0655 32.1733 60.936 32.2851 61.5538 32.4528C62.1716 32.6205 62.6209 32.8442 62.9017 33.0957C63.1545 33.3473 63.2949 33.6827 63.2949 34.102C63.2949 34.9965 62.8456 35.6394 61.947 36.0587C61.0484 36.478 59.7005 36.7016 57.8752 36.7016C56.6396 36.7016 55.5445 36.5618 54.5616 36.2544C53.6069 35.9748 52.8206 35.5556 52.2309 35.0245C51.6412 34.4934 51.2761 33.8784 51.1638 33.1516L48.9735 33.543L46.7832 33.1516C46.8393 34.4934 47.3448 35.6953 48.2434 36.7016C49.142 37.7079 50.4056 38.5185 52.0624 39.0776C53.7192 39.6366 55.6287 39.9161 57.8471 39.9161C59.9813 39.9161 61.7785 39.6646 63.2106 39.1614C64.6428 38.6583 65.7379 37.9595 66.468 37.037C67.1981 36.1146 67.5351 35.0245 67.5351 33.7666C67.5351 32.3131 66.9735 31.0552 65.8502 30.1328Z" fill="#221E1E"/>
<path d="M44.8736 20.8526L42.6552 21.2718L40.4368 20.8526H40.4087L39.9314 25.4927C38.9485 23.8714 37.713 22.6415 36.2247 21.747C34.7364 20.8526 33.0796 20.4053 31.2824 20.4053C29.4852 20.4053 27.8565 20.8246 26.4243 21.6352C24.9922 22.4458 23.897 23.6198 23.0827 25.1013C22.2683 26.5828 21.8752 28.2879 21.8752 30.2166C21.8752 32.1454 22.2683 33.8505 23.0827 35.3319C23.869 36.8134 24.9922 37.9874 26.4243 38.798C27.8565 39.6087 29.4852 40.028 31.2824 40.028C33.0796 40.028 34.7364 39.5807 36.2247 38.6862C37.713 37.7918 38.9485 36.5339 39.9314 34.9126L40.4087 39.5528L42.6272 39.1335L44.8456 39.5528L43.8627 30.1887L44.8736 20.8526ZM38.3027 33.543C37.5164 34.4934 36.5897 35.2481 35.5788 35.7792C34.5679 36.3103 33.4727 36.5898 32.2933 36.5898C31.1139 36.5898 30.103 36.3103 29.1763 35.7792C28.2496 35.2481 27.5476 34.4934 27.014 33.515C26.5086 32.5367 26.2559 31.4465 26.2559 30.2166C26.2559 28.9867 26.5086 27.8966 27.014 26.9182C27.5195 25.9679 28.2496 25.2131 29.1763 24.6541C30.103 24.095 31.142 23.8435 32.2933 23.8435C33.4446 23.8435 34.5398 24.123 35.5788 24.6541C36.5897 25.1852 37.5164 25.9399 38.3027 26.8903C39.0889 27.8407 39.7348 28.9588 40.2122 30.2166C39.7348 31.4745 39.0889 32.5646 38.3027 33.543Z" fill="#221E1E"/>
<path d="M20.5554 18.5884V14.7589H0V39.5528L2.19033 39.1614L4.38066 39.5528V29.434H20.0218V25.6045H4.38066V18.5884H20.5554Z" fill="#221E1E"/>
</g>
<defs>
<clipPath id="clip0_9001_581">
<rect width="144" height="40" fill="white"/>
</clipPath>
</defs>
</svg>
