<svg width="122" height="34" viewBox="0 0 122 34" fill="none" xmlns="http://www.w3.org/2000/svg">
<g clip-path="url(#clip0_428_682)">
<path d="M58.2397 20.5283V18.8651L61.6419 17.986L63.1645 13.543H65.3057V17.7009H72.7046V20.5045H65.3057V27.3948C65.3057 28.2739 65.4246 28.9867 65.6863 29.5094C65.948 30.0321 66.3287 30.4123 66.8521 30.6499C67.3755 30.8875 68.0892 30.9825 68.9695 30.9825C69.7784 30.9825 70.4921 30.8875 71.1344 30.7212C71.7768 30.5548 72.3954 30.2935 72.9901 29.9371V32.9546C72.4429 33.2397 71.7292 33.4773 70.8489 33.6911C69.9687 33.905 69.0646 34 68.1844 34C65.948 34 64.3064 33.4535 63.2358 32.3843C62.189 31.3152 61.6419 29.8421 61.6419 27.9413V20.5283H58.2397Z" fill="white"/>
<path d="M83.1968 33.6194V17.6055L85.0287 17.9381L86.8606 17.6055V33.6194H83.1968Z" fill="#ED353A"/>
<path d="M97.306 15.325C96.6398 15.919 96.3306 16.8456 96.3306 18.1524V18.8176H103.611V21.6213H96.3306V33.6199H92.6668V21.6213H89.2646V18.8176H92.6668V18.485C92.6668 17.0832 92.9284 15.8715 93.4519 14.8498C93.9753 13.8281 94.7841 13.0203 95.8785 12.4501C96.9729 11.8798 98.329 11.5947 99.9468 11.5947C100.708 11.5947 101.374 11.6422 101.993 11.761C102.611 11.8798 103.254 12.0462 103.92 12.2838V15.1587C102.849 14.6835 101.684 14.4221 100.375 14.4221C98.9951 14.4221 97.9721 14.731 97.306 15.325Z" fill="#ED353A"/>
<path d="M108.082 26.9677C108.391 28.2982 109.129 29.3199 110.247 30.0564C111.365 30.793 112.792 31.1494 114.505 31.1494C115.742 31.1494 116.98 30.9593 118.264 30.5554C119.525 30.1752 120.667 29.6288 121.643 28.9397V31.6008C120.667 32.3611 119.478 32.9313 118.074 33.359C116.67 33.7867 115.267 34.0005 113.815 34.0005C111.96 34.0005 110.318 33.6441 108.867 32.9551C107.416 32.2661 106.274 31.2682 105.465 30.0089C104.656 28.7497 104.251 27.2766 104.251 25.6372C104.251 23.9977 104.632 22.5722 105.417 21.3129C106.202 20.0536 107.273 19.0795 108.677 18.3667C110.056 17.6777 111.65 17.3213 113.411 17.3213C115.172 17.3213 116.694 17.7252 118.026 18.5093C119.335 19.3171 120.358 20.4338 121.072 21.8831C121.785 23.3325 122.142 25.0194 122.142 26.9439H108.082V26.9677ZM110.794 20.6714C110.056 21.004 109.462 21.4555 108.986 22.0495C108.51 22.6434 108.177 23.3562 108.034 24.1641H118.264C118.003 22.9048 117.432 21.9307 116.551 21.2179C115.671 20.5288 114.577 20.1724 113.244 20.1724C112.34 20.1962 111.531 20.3388 110.794 20.6714Z" fill="#ED353A"/>
<path d="M83.2698 16.0378C82.675 16.0378 82.0802 15.7051 81.7947 15.1349C81.3665 14.3271 81.6996 13.3054 82.5323 12.9015C86.1247 11.072 91.4539 7.43678 92.0011 5.10834C92.0724 4.75195 92.0248 4.51435 91.8345 4.25299C91.4063 3.68276 91.1208 3.70652 91.0256 3.70652C90.074 3.73028 88.4562 5.29842 87.6711 6.43888C87.3618 6.89031 86.8384 7.15167 86.2912 7.15167C85.744 7.15167 85.2206 6.86655 84.9113 6.41512C83.9597 4.98954 82.2943 3.37389 81.4379 3.35013C81.3665 3.35013 81.1762 3.35013 80.8907 3.75404C80.7241 3.99164 80.6766 4.20547 80.7241 4.46683C80.962 5.77361 83.0794 7.4843 84.0073 8.07829C84.7924 8.57724 85.0065 9.5989 84.5069 10.383C84.0073 11.167 82.9843 11.3809 82.1992 10.8819C81.7709 10.6206 78.0358 8.14957 77.441 5.10834C77.2269 3.92036 77.4648 2.80366 78.1785 1.80575C79.2729 0.285139 80.5814 2.34544e-05 81.5092 0.0237831C83.4363 0.0713023 85.173 1.5444 86.3388 2.85118C87.457 1.71072 89.1223 0.427696 90.9542 0.380177C91.9059 0.356418 93.3096 0.665292 94.4991 2.28095C95.2842 3.32637 95.5459 4.58563 95.2366 5.89241C94.1422 10.5493 85.7202 15.0399 84.0549 15.8952C83.7694 15.9902 83.5077 16.0378 83.2698 16.0378Z" fill="#ED353A"/>
<path d="M77.4877 12.331L75.6558 11.9746V33.6196H79.3196V11.9746L77.4877 12.331Z" fill="#ED353A"/>
<path d="M55.7898 25.6127C54.8382 24.8287 53.2204 24.3297 50.9364 24.0921L46.9158 23.7357C45.75 23.6407 44.9411 23.4506 44.4653 23.1655C43.9895 22.8804 43.7516 22.524 43.7516 22.0726C43.7516 21.431 44.1084 20.9559 44.846 20.5995C45.5835 20.2431 46.6065 20.0767 47.9388 20.0767C49.0808 20.0767 50.0562 20.1955 50.8175 20.4569C51.5788 20.7183 52.1498 21.0509 52.5304 21.4548C52.9111 21.8587 53.149 22.2864 53.2204 22.7378H53.2442L55.0761 22.4052L56.908 22.7378H56.9318C56.8366 21.6686 56.4084 20.742 55.6471 19.9104C54.8857 19.1026 53.8389 18.4611 52.5304 17.9859C51.2219 17.5345 49.7707 17.2969 48.1291 17.2969C46.5351 17.2969 45.1315 17.487 43.9181 17.8671C42.7048 18.2473 41.7769 18.8175 41.1108 19.554C40.4446 20.2906 40.1116 21.1934 40.1116 22.2626C40.1116 23.5219 40.635 24.5673 41.6818 25.3989C42.7286 26.2305 44.4415 26.777 46.8206 26.967L49.9372 27.2522C50.8889 27.3472 51.6264 27.4422 52.1498 27.5848C52.6732 27.7273 53.0538 27.9174 53.2917 28.1313C53.5059 28.3451 53.6248 28.6302 53.6248 28.9866C53.6248 29.7469 53.2442 30.2934 52.4829 30.6498C51.7215 31.0062 50.5796 31.1962 49.0332 31.1962C47.9864 31.1962 47.0585 31.0774 46.2258 30.8161C45.4169 30.5785 44.7508 30.2221 44.2512 29.7707C43.7516 29.3192 43.4423 28.7965 43.3471 28.1788L41.4914 28.5114L39.6357 28.1788C39.6833 29.3192 40.1116 30.3409 40.8729 31.1962C41.6342 32.0516 42.7048 32.7406 44.1084 33.2158C45.5121 33.691 47.1299 33.9286 49.0094 33.9286C50.8175 33.9286 52.3401 33.7148 53.5535 33.2871C54.7668 32.8594 55.6946 32.2654 56.3132 31.4814C56.9318 30.6973 57.2173 29.7707 57.2173 28.7015C57.2173 27.466 56.7414 26.3968 55.7898 25.6127Z" fill="white"/>
<path d="M38.018 17.7249L36.1385 18.0813L34.259 17.7249H34.2352L33.8308 21.669C32.9981 20.2909 31.9513 19.2455 30.6904 18.4852C29.4295 17.7249 28.0258 17.3447 26.5032 17.3447C24.9806 17.3447 23.6007 17.7011 22.3873 18.3901C21.174 19.0792 20.2462 20.0771 19.5562 21.3363C18.8663 22.5956 18.5332 24.0449 18.5332 25.6843C18.5332 27.3238 18.8663 28.7731 19.5562 30.0324C20.2224 31.2916 21.174 32.2895 22.3873 32.9785C23.6007 33.6676 24.9806 34.024 26.5032 34.024C28.0258 34.024 29.4295 33.6438 30.6904 32.8835C31.9513 32.1232 32.9981 31.054 33.8308 29.676L34.2352 33.6201L36.1147 33.2637L37.9942 33.6201L37.1615 25.6606L38.018 17.7249ZM32.4509 28.5117C31.7848 29.3196 30.9997 29.9611 30.1432 30.4125C29.2867 30.8639 28.3589 31.1015 27.3596 31.1015C26.3604 31.1015 25.504 30.8639 24.7189 30.4125C23.9337 29.9611 23.339 29.3196 22.8869 28.488C22.4587 27.6564 22.2446 26.7298 22.2446 25.6843C22.2446 24.6389 22.4587 23.7123 22.8869 22.8807C23.3152 22.0729 23.9337 21.4314 24.7189 20.9562C25.504 20.481 26.3842 20.2672 27.3596 20.2672C28.3351 20.2672 29.2629 20.5048 30.1432 20.9562C30.9997 21.4076 31.7848 22.0491 32.4509 22.857C33.1171 23.6648 33.6642 24.6152 34.0687 25.6843C33.6642 26.7535 33.1171 27.6802 32.4509 28.5117Z" fill="white"/>
<path d="M17.415 15.8V12.5449H0V33.6197L1.85569 33.2871L3.71139 33.6197V25.0187H16.9629V21.7636H3.71139V15.8H17.415Z" fill="white"/>
</g>
<defs>
<clipPath id="clip0_428_682">
<rect width="122" height="34" fill="white"/>
</clipPath>
</defs>
</svg>
