<svg width="414" height="91" viewBox="0 0 414 91" fill="none" xmlns="http://www.w3.org/2000/svg">
<path d="M380.803 1C386.973 1.00001 392.395 2.09589 397.04 4.32324H397.039C401.696 6.51548 405.35 9.57896 407.964 13.5215C410.584 17.4745 411.886 21.9977 411.886 27.0576C411.886 30.3884 411.226 33.6696 409.916 36.8955C408.624 40.1452 406.34 43.6983 403.109 47.5488L403.107 47.5508C399.878 51.3722 395.347 55.937 389.53 61.2412L378.367 72.2041H413V88.8418H350.751V74.5039L351.071 74.208L381.138 46.3115C383.683 43.8436 385.809 41.631 387.519 39.6729L387.523 39.667C389.237 37.7351 390.513 35.8693 391.372 34.0703C392.213 32.2814 392.637 30.3478 392.637 28.2568C392.637 25.9317 392.11 23.9873 391.099 22.3809L391.095 22.375C390.067 20.7174 388.669 19.452 386.88 18.5684L386.87 18.5635C385.075 17.6512 383.018 17.1826 380.679 17.1826C378.23 17.1826 376.143 17.6783 374.389 18.6328C372.637 19.5857 371.291 20.9455 370.337 22.7324C369.384 24.5163 368.887 26.6766 368.887 29.249V30.249H349.926V29.249C349.926 23.5533 351.215 18.5555 353.829 14.2949C356.436 10.0465 360.09 6.76487 364.761 4.45312C369.432 2.14142 374.788 1 380.803 1Z" stroke="white" stroke-width="2"/>
<path d="M308.772 1C314.583 1.00001 319.8 2.01263 324.404 4.0625C329.022 6.10644 332.689 8.92179 335.364 12.5234C338.053 16.1166 339.413 20.2126 339.442 24.7773L339.443 24.7891L338.443 24.7832L339.442 24.7891C339.413 29.6664 337.909 33.9566 334.925 37.6143C332.553 40.5215 329.64 42.5783 326.205 43.7793C328.656 44.4948 330.934 45.6087 333.034 47.1221H333.035C335.935 49.1651 338.237 51.745 339.933 54.8525C341.67 57.9556 342.55 61.3616 342.579 65.0508V65.0645C342.55 69.8603 341.059 74.1671 338.118 77.9521C335.19 81.7203 331.162 84.6695 326.081 86.8193L326.079 86.8203C321.011 88.948 315.235 90 308.772 90C302.309 90 296.521 88.9482 291.426 86.8213L291.419 86.8184C286.365 84.6681 282.353 81.7189 279.426 77.9521C276.484 74.1655 275.006 69.8565 275.006 65.0586C275.006 61.373 275.841 57.9686 277.52 54.8652L277.522 54.8623C279.113 51.9447 281.237 49.4922 283.889 47.5117L284.426 47.1221C286.547 45.6084 288.852 44.4947 291.336 43.7793C287.855 42.5788 284.926 40.5222 282.574 37.6104L282.572 37.6074C279.619 33.923 278.143 29.6338 278.143 24.7832C278.143 20.1918 279.487 16.0806 282.177 12.4854C284.852 8.88295 288.505 6.07995 293.098 4.0625C297.729 2.01292 302.96 1 308.772 1ZM308.772 52.041C306.187 52.041 303.911 52.5629 301.924 53.584L301.916 53.5889C299.919 54.5892 298.365 55.9614 297.23 57.7061C296.136 59.4022 295.577 61.3729 295.577 63.6523C295.577 65.8753 296.121 67.805 297.189 69.4746C298.262 71.1245 299.778 72.4412 301.773 73.417C303.763 74.3627 306.088 74.8506 308.772 74.8506C311.481 74.8506 313.8 74.3636 315.756 73.4238C317.729 72.4485 319.236 71.1303 320.313 69.4746L320.315 69.4717C321.409 67.8017 321.967 65.8733 321.967 63.6523C321.967 61.3762 321.396 59.4078 320.276 57.7119L320.272 57.7061C319.134 55.9583 317.593 54.5854 315.624 53.5859L315.615 53.582C313.659 52.5642 311.387 52.041 308.772 52.041ZM308.772 16.4795C306.516 16.4795 304.56 16.9341 302.88 17.8135L302.871 17.8184H302.87C301.182 18.6767 299.878 19.8644 298.933 21.3838C298.027 22.8587 297.557 24.6005 297.557 26.6445C297.557 28.7147 298.04 30.5008 298.978 32.0352C299.925 33.5837 301.232 34.7984 302.921 35.6826C304.603 36.5628 306.545 37.0156 308.772 37.0156C310.999 37.0156 312.94 36.5627 314.622 35.6826C316.311 34.7983 317.619 33.5838 318.566 32.0352C319.504 30.5008 319.987 28.7147 319.987 26.6445C319.987 24.6037 319.506 22.864 318.574 21.3896L318.569 21.3838C317.622 19.8606 316.329 18.6727 314.668 17.8154L314.658 17.8105C313.01 16.9351 311.058 16.4795 308.772 16.4795Z" stroke="white" stroke-width="2"/>
<path d="M235.912 1C241.682 1.00001 246.821 2.12849 251.301 4.41504L252.127 4.8457C256.204 7.04867 259.523 9.97424 262.067 13.6221L262.568 14.3564C265.009 18.0571 266.496 22.1738 267.029 26.6924L267.161 27.8096H247.622L247.441 27.0371C246.801 24.2909 245.474 22.1844 243.476 20.6572C241.478 19.131 238.978 18.3408 235.912 18.3408C230.769 18.3408 226.91 20.5481 224.226 25.0479C221.839 29.09 220.447 34.4779 220.112 41.2705C221.222 39.6352 222.55 38.1815 224.094 36.9121C226.363 35.0415 228.932 33.6193 231.793 32.6445C234.68 31.6426 237.72 31.1436 240.905 31.1436C246.077 31.1436 250.716 32.3703 254.794 34.8447H254.793C258.854 37.2815 262.058 40.6377 264.396 44.8945C266.742 49.1676 267.903 54.0368 267.903 59.4756C267.903 65.3709 266.529 70.6518 263.759 75.2881C261.021 79.9164 257.183 83.542 252.27 86.1602L252.268 86.1611C247.367 88.759 241.698 90.0281 235.289 90H235.287C230.83 89.9717 226.524 89.2221 222.373 87.751L222.371 87.75C218.204 86.263 214.474 83.8482 211.185 80.5234C207.867 77.1707 205.267 72.7598 203.358 67.333L203.357 67.3291C201.467 61.8723 200.537 55.2209 200.537 47.4023V47.3984L200.552 46.0596C200.671 39.4109 201.486 33.41 203.01 28.0654L203.011 28.0625C204.662 22.3413 207.023 17.4547 210.11 13.4248L210.113 13.4209C213.228 9.39157 216.965 6.31233 221.321 4.20117C225.682 2.06043 230.552 1 235.912 1ZM235.334 46.0859C233.399 46.086 231.625 46.4478 230 47.1602L229.999 47.1592C228.387 47.8777 226.97 48.8775 225.74 50.1611C224.538 51.445 223.587 52.9362 222.89 54.6436L222.888 54.6484C222.198 56.3126 221.85 58.0983 221.85 60.0137C221.85 62.5815 222.43 64.9066 223.579 67.0088C224.764 69.125 226.353 70.806 228.352 72.0654L228.73 72.291C230.64 73.3861 232.793 73.9404 235.211 73.9404C237.794 73.9404 240.073 73.3216 242.077 72.1016C244.099 70.8708 245.682 69.2091 246.837 67.1006C247.987 65.0005 248.571 62.6312 248.571 59.9717C248.571 57.3122 247.987 54.9594 246.84 52.8896L246.835 52.8818C245.707 50.8015 244.151 49.1526 242.155 47.9219C240.181 46.7048 237.917 46.0859 235.334 46.0859Z" stroke="white" stroke-width="2"/>
<path d="M161.035 1C167.205 1.00001 172.627 2.0959 177.272 4.32324H177.271C181.929 6.51548 185.583 9.57896 188.196 13.5215C190.817 17.4745 192.118 21.9977 192.118 27.0576C192.118 30.3884 191.458 33.6696 190.148 36.8955C188.857 40.1452 186.572 43.6983 183.342 47.5488L183.34 47.5508C180.111 51.3722 175.58 55.937 169.763 61.2412L158.6 72.2041H193.232V88.8418H130.983V74.5039L131.304 74.208L161.37 46.3115C163.915 43.8436 166.041 41.631 167.751 39.6729L167.756 39.667C169.47 37.7351 170.746 35.8693 171.604 34.0703C172.445 32.2814 172.869 30.3478 172.869 28.2568C172.869 25.9317 172.342 23.9873 171.331 22.3809L171.327 22.375C170.3 20.7174 168.901 19.452 167.112 18.5684L167.103 18.5635C165.307 17.6512 163.25 17.1826 160.911 17.1826C158.462 17.1826 156.376 17.6783 154.621 18.6328C152.869 19.5857 151.524 20.9455 150.569 22.7324C149.617 24.5163 149.119 26.6766 149.119 29.249V30.249H130.158V29.249C130.158 23.5533 131.447 18.5555 134.062 14.2949C136.669 10.0465 140.322 6.76487 144.993 4.45312C149.664 2.14142 155.02 1 161.035 1Z" stroke="white" stroke-width="2"/>
<path d="M89.0078 1C94.8185 1.00001 100.036 2.01263 104.64 4.0625C109.258 6.10644 112.924 8.92179 115.6 12.5234C118.289 16.1166 119.649 20.2126 119.678 24.7773L119.679 24.7891L118.679 24.7832L119.678 24.7891C119.649 29.6664 118.145 33.9566 115.161 37.6143C112.789 40.5215 109.876 42.5783 106.44 43.7793C108.892 44.4948 111.17 45.6087 113.27 47.1221H113.271C116.171 49.1651 118.473 51.745 120.169 54.8525C121.905 57.9556 122.786 61.3616 122.814 65.0508V65.0645C122.786 69.8603 121.295 74.1671 118.354 77.9521C115.425 81.7203 111.398 84.6694 106.316 86.8193L106.314 86.8203C101.247 88.948 95.4709 90 89.0078 90C82.5446 90 76.7564 88.9482 71.6621 86.8213L71.6553 86.8184C66.6012 84.6681 62.5891 81.7189 59.6621 77.9521C56.7197 74.1655 55.2423 69.8565 55.2422 65.0586C55.2422 61.373 56.0771 57.9686 57.7559 54.8652L57.7578 54.8623C59.3485 51.9447 61.4731 49.4922 64.125 47.5117L64.6621 47.1221C66.7824 45.6084 69.0877 44.4947 71.5723 43.7793C68.0908 42.5788 65.1621 40.5222 62.8096 37.6104L62.8076 37.6074C59.8544 33.923 58.3789 29.6338 58.3789 24.7832C58.379 20.1918 59.7231 16.0806 62.4131 12.4854C65.0879 8.88295 68.7412 6.07994 73.334 4.0625C77.9647 2.01292 83.196 1 89.0078 1ZM89.0078 52.041C86.4225 52.041 84.1473 52.5629 82.1602 53.584L82.1514 53.5889C80.1548 54.5892 78.6013 55.9614 77.4658 57.7061C76.3714 59.4022 75.8125 61.3729 75.8125 63.6523C75.8125 65.8753 76.3571 67.805 77.4248 69.4746C78.4976 71.1245 80.0137 72.4412 82.0088 73.417C83.9984 74.3627 86.3236 74.8506 89.0078 74.8506C91.7172 74.8506 94.0362 74.3636 95.9922 73.4238C97.9645 72.4485 99.4723 71.1303 100.549 69.4746L100.551 69.4717C101.645 67.8017 102.203 65.8733 102.203 63.6523C102.203 61.3762 101.632 59.4078 100.512 57.7119L100.508 57.7061C99.3702 55.9583 97.8286 54.5854 95.8594 53.5859L95.8506 53.582C93.8952 52.5642 91.6227 52.041 89.0078 52.041ZM89.0078 16.4795C86.7514 16.4795 84.7961 16.9341 83.1162 17.8135L83.1064 17.8184H83.1055C81.4175 18.6767 80.1136 19.8644 79.1689 21.3838C78.2623 22.8587 77.793 24.6005 77.793 26.6445C77.793 28.7147 78.2754 30.5008 79.2139 32.0352C80.1611 33.5837 81.468 34.7984 83.1572 35.6826C84.8388 36.5628 86.781 37.0156 89.0078 37.0156C91.2344 37.0156 93.176 36.5627 94.8574 35.6826C96.5468 34.7983 97.8545 33.5838 98.8018 32.0352C99.7402 30.5008 100.223 28.7147 100.223 26.6445C100.223 24.6037 99.7414 22.864 98.8096 21.3896L98.8047 21.3838C97.8577 19.8606 96.565 18.6727 94.9043 17.8154L94.8936 17.8105C93.246 16.9351 91.2941 16.4795 89.0078 16.4795Z" stroke="white" stroke-width="2"/>
<path d="M40.7178 2.15863V88.8422H20.8496V21.6508L2.53223 33.1567L1 34.1196V15.8823L1.46387 15.5873L22.3867 2.3139L22.6318 2.15863H40.7178Z" stroke="white" stroke-width="2"/>
</svg>
